<svg width="16" height="16" viewBox="0 0 16 16" fill="none" xmlns="http://www.w3.org/2000/svg">
<path fill-rule="evenodd" clip-rule="evenodd" d="M12.938 9.80641C12.8944 9.76276 12.8427 9.72813 12.7858 9.7045C12.7288 9.68087 12.6678 9.6687 12.6061 9.6687C12.5444 9.6687 12.4834 9.68087 12.4264 9.7045C12.3695 9.72813 12.3178 9.76276 12.2742 9.80641L9.7936 12.288L7.31297 9.80641C7.22495 9.7184 7.10557 9.66895 6.9811 9.66895C6.85662 9.66895 6.73724 9.7184 6.64922 9.80641C6.5612 9.89443 6.51175 10.0138 6.51175 10.1383C6.51175 10.2628 6.5612 10.3821 6.64922 10.4702L9.46172 13.2827C9.50526 13.3263 9.55699 13.361 9.61394 13.3846C9.67089 13.4082 9.73194 13.4204 9.7936 13.4204C9.85525 13.4204 9.9163 13.4082 9.97325 13.3846C10.0302 13.361 10.0819 13.3263 10.1255 13.2827L12.938 10.4702C12.9816 10.4266 13.0163 10.3749 13.0399 10.3179C13.0635 10.261 13.0757 10.1999 13.0757 10.1383C13.0757 10.0766 13.0635 10.0156 13.0399 9.95863C13.0163 9.90168 12.9816 9.84996 12.938 9.80641V9.80641Z" fill="#454545"/>
<path fill-rule="evenodd" clip-rule="evenodd" d="M9.79361 12.9508C9.91793 12.9508 10.0372 12.9014 10.1251 12.8135C10.213 12.7256 10.2624 12.6064 10.2624 12.4821V6.38831C10.2624 5.7667 10.0154 5.17056 9.57589 4.73102C9.13635 4.29149 8.54021 4.04456 7.91861 4.04456H2.76236C2.63804 4.04456 2.51881 4.09394 2.4309 4.18185C2.34299 4.26976 2.29361 4.38899 2.29361 4.51331C2.29361 4.63763 2.34299 4.75685 2.4309 4.84476C2.51881 4.93267 2.63804 4.98206 2.76236 4.98206H7.91861C8.29157 4.98206 8.64926 5.13021 8.91298 5.39394C9.1767 5.65766 9.32486 6.01534 9.32486 6.38831V12.4821C9.32486 12.6064 9.37425 12.7256 9.46215 12.8135C9.55006 12.9014 9.66929 12.9508 9.79361 12.9508Z" fill="#454545"/>
</svg>
