<svg width="30" height="30" viewBox="0 0 30 30" fill="none" xmlns="http://www.w3.org/2000/svg">
<g clip-path="url(#clip0)">
<path fill-rule="evenodd" clip-rule="evenodd" d="M26.25 0H3.75C2.75544 0 1.80161 0.395088 1.09835 1.09835C0.395088 1.80161 0 2.75544 0 3.75L0 26.25C0 27.2446 0.395088 28.1984 1.09835 28.9016C1.80161 29.6049 2.75544 30 3.75 30H26.25C27.2446 30 28.1984 29.6049 28.9016 28.9016C29.6049 28.1984 30 27.2446 30 26.25V3.75C30 2.75544 29.6049 1.80161 28.9016 1.09835C28.1984 0.395088 27.2446 0 26.25 0V0ZM1.875 7.23188C1.875 6.345 2.715 5.625 3.75 5.625H26.25C27.285 5.625 28.125 6.345 28.125 7.23188V26.5181C28.125 27.405 27.285 28.125 26.25 28.125H3.75C2.715 28.125 1.875 27.405 1.875 26.5181V7.23188Z" fill="#3187F1"/>
<path fill-rule="evenodd" clip-rule="evenodd" d="M12.1875 13.125C12.6848 13.125 13.1617 12.9275 13.5133 12.5758C13.865 12.2242 14.0625 11.7473 14.0625 11.25C14.0625 10.7527 13.865 10.2758 13.5133 9.92418C13.1617 9.57254 12.6848 9.375 12.1875 9.375C11.6902 9.375 11.2133 9.57254 10.8617 9.92418C10.51 10.2758 10.3125 10.7527 10.3125 11.25C10.3125 11.7473 10.51 12.2242 10.8617 12.5758C11.2133 12.9275 11.6902 13.125 12.1875 13.125ZM17.8125 13.125C18.3098 13.125 18.7867 12.9275 19.1383 12.5758C19.49 12.2242 19.6875 11.7473 19.6875 11.25C19.6875 10.7527 19.49 10.2758 19.1383 9.92418C18.7867 9.57254 18.3098 9.375 17.8125 9.375C17.3152 9.375 16.8383 9.57254 16.4867 9.92418C16.135 10.2758 15.9375 10.7527 15.9375 11.25C15.9375 11.7473 16.135 12.2242 16.4867 12.5758C16.8383 12.9275 17.3152 13.125 17.8125 13.125ZM23.4375 13.125C23.9348 13.125 24.4117 12.9275 24.7633 12.5758C25.115 12.2242 25.3125 11.7473 25.3125 11.25C25.3125 10.7527 25.115 10.2758 24.7633 9.92418C24.4117 9.57254 23.9348 9.375 23.4375 9.375C22.9402 9.375 22.4633 9.57254 22.1117 9.92418C21.76 10.2758 21.5625 10.7527 21.5625 11.25C21.5625 11.7473 21.76 12.2242 22.1117 12.5758C22.4633 12.9275 22.9402 13.125 23.4375 13.125ZM6.5625 18.75C7.05978 18.75 7.53669 18.5525 7.88832 18.2008C8.23996 17.8492 8.4375 17.3723 8.4375 16.875C8.4375 16.3777 8.23996 15.9008 7.88832 15.5492C7.53669 15.1975 7.05978 15 6.5625 15C6.06522 15 5.58831 15.1975 5.23667 15.5492C4.88504 15.9008 4.6875 16.3777 4.6875 16.875C4.6875 17.3723 4.88504 17.8492 5.23667 18.2008C5.58831 18.5525 6.06522 18.75 6.5625 18.75ZM12.1875 18.75C12.6848 18.75 13.1617 18.5525 13.5133 18.2008C13.865 17.8492 14.0625 17.3723 14.0625 16.875C14.0625 16.3777 13.865 15.9008 13.5133 15.5492C13.1617 15.1975 12.6848 15 12.1875 15C11.6902 15 11.2133 15.1975 10.8617 15.5492C10.51 15.9008 10.3125 16.3777 10.3125 16.875C10.3125 17.3723 10.51 17.8492 10.8617 18.2008C11.2133 18.5525 11.6902 18.75 12.1875 18.75ZM17.8125 18.75C18.3098 18.75 18.7867 18.5525 19.1383 18.2008C19.49 17.8492 19.6875 17.3723 19.6875 16.875C19.6875 16.3777 19.49 15.9008 19.1383 15.5492C18.7867 15.1975 18.3098 15 17.8125 15C17.3152 15 16.8383 15.1975 16.4867 15.5492C16.135 15.9008 15.9375 16.3777 15.9375 16.875C15.9375 17.3723 16.135 17.8492 16.4867 18.2008C16.8383 18.5525 17.3152 18.75 17.8125 18.75ZM23.4375 18.75C23.9348 18.75 24.4117 18.5525 24.7633 18.2008C25.115 17.8492 25.3125 17.3723 25.3125 16.875C25.3125 16.3777 25.115 15.9008 24.7633 15.5492C24.4117 15.1975 23.9348 15 23.4375 15C22.9402 15 22.4633 15.1975 22.1117 15.5492C21.76 15.9008 21.5625 16.3777 21.5625 16.875C21.5625 17.3723 21.76 17.8492 22.1117 18.2008C22.4633 18.5525 22.9402 18.75 23.4375 18.75ZM6.5625 24.375C7.05978 24.375 7.53669 24.1775 7.88832 23.8258C8.23996 23.4742 8.4375 22.9973 8.4375 22.5C8.4375 22.0027 8.23996 21.5258 7.88832 21.1742C7.53669 20.8225 7.05978 20.625 6.5625 20.625C6.06522 20.625 5.58831 20.8225 5.23667 21.1742C4.88504 21.5258 4.6875 22.0027 4.6875 22.5C4.6875 22.9973 4.88504 23.4742 5.23667 23.8258C5.58831 24.1775 6.06522 24.375 6.5625 24.375ZM12.1875 24.375C12.6848 24.375 13.1617 24.1775 13.5133 23.8258C13.865 23.4742 14.0625 22.9973 14.0625 22.5C14.0625 22.0027 13.865 21.5258 13.5133 21.1742C13.1617 20.8225 12.6848 20.625 12.1875 20.625C11.6902 20.625 11.2133 20.8225 10.8617 21.1742C10.51 21.5258 10.3125 22.0027 10.3125 22.5C10.3125 22.9973 10.51 23.4742 10.8617 23.8258C11.2133 24.1775 11.6902 24.375 12.1875 24.375ZM17.8125 24.375C18.3098 24.375 18.7867 24.1775 19.1383 23.8258C19.49 23.4742 19.6875 22.9973 19.6875 22.5C19.6875 22.0027 19.49 21.5258 19.1383 21.1742C18.7867 20.8225 18.3098 20.625 17.8125 20.625C17.3152 20.625 16.8383 20.8225 16.4867 21.1742C16.135 21.5258 15.9375 22.0027 15.9375 22.5C15.9375 22.9973 16.135 23.4742 16.4867 23.8258C16.8383 24.1775 17.3152 24.375 17.8125 24.375Z" fill="#3187F1"/>
</g>
<defs>
<clipPath id="clip0">
<rect width="30" height="30" fill="white"/>
</clipPath>
</defs>
</svg>
