<svg width="50" height="50" viewBox="0 0 50 50" fill="none" xmlns="http://www.w3.org/2000/svg">
<path fill-rule="evenodd" clip-rule="evenodd" d="M12.5 3.125H37.5C39.1576 3.125 40.7473 3.78348 41.9194 4.95558C43.0915 6.12769 43.75 7.7174 43.75 9.375V40.625C43.75 42.2826 43.0915 43.8723 41.9194 45.0444C40.7473 46.2165 39.1576 46.875 37.5 46.875H12.5C10.8424 46.875 9.25268 46.2165 8.08058 45.0444C6.90848 43.8723 6.25 42.2826 6.25 40.625V9.375C6.25 7.7174 6.90848 6.12769 8.08058 4.95558C9.25268 3.78348 10.8424 3.125 12.5 3.125ZM12.5 6.25C11.6712 6.25 10.8763 6.57924 10.2903 7.16529C9.70424 7.75134 9.375 8.5462 9.375 9.375V40.625C9.375 41.4538 9.70424 42.2487 10.2903 42.8347C10.8763 43.4208 11.6712 43.75 12.5 43.75H37.5C38.3288 43.75 39.1237 43.4208 39.7097 42.8347C40.2958 42.2487 40.625 41.4538 40.625 40.625V9.375C40.625 8.5462 40.2958 7.75134 39.7097 7.16529C39.1237 6.57924 38.3288 6.25 37.5 6.25H12.5Z" fill="#1479EC"/>
<path d="M43.0751 43.75C41.5219 39.7812 36.8625 34.375 25 34.375C13.1375 34.375 8.47817 39.7812 6.92505 43.75H43.0751Z" fill="#1479EC"/>
<path fill-rule="evenodd" clip-rule="evenodd" d="M25 31.25C26.2311 31.25 27.4502 31.0075 28.5877 30.5364C29.7251 30.0652 30.7586 29.3747 31.6291 28.5041C32.4997 27.6336 33.1902 26.6001 33.6614 25.4627C34.1325 24.3252 34.375 23.1061 34.375 21.875C34.375 20.6439 34.1325 19.4248 33.6614 18.2873C33.1902 17.1499 32.4997 16.1164 31.6291 15.2459C30.7586 14.3753 29.7251 13.6848 28.5877 13.2136C27.4502 12.7425 26.2311 12.5 25 12.5C22.5136 12.5 20.129 13.4877 18.3709 15.2459C16.6127 17.004 15.625 19.3886 15.625 21.875C15.625 24.3614 16.6127 26.746 18.3709 28.5041C20.129 30.2623 22.5136 31.25 25 31.25Z" fill="#1479EC"/>
</svg>
