<svg width="50" height="50" viewBox="0 0 50 50" fill="none" xmlns="http://www.w3.org/2000/svg">
<path fill-rule="evenodd" clip-rule="evenodd" d="M6.25 39.0625C6.25 38.6481 6.41462 38.2507 6.70765 37.9576C7.00067 37.6646 7.3981 37.5 7.8125 37.5H42.1875C42.6019 37.5 42.9993 37.6646 43.2924 37.9576C43.5854 38.2507 43.75 38.6481 43.75 39.0625C43.75 39.4769 43.5854 39.8743 43.2924 40.1674C42.9993 40.4604 42.6019 40.625 42.1875 40.625H7.8125C7.3981 40.625 7.00067 40.4604 6.70765 40.1674C6.41462 39.8743 6.25 39.4769 6.25 39.0625ZM6.25 29.6875C6.25 29.2731 6.41462 28.8757 6.70765 28.5826C7.00067 28.2896 7.3981 28.125 7.8125 28.125H42.1875C42.6019 28.125 42.9993 28.2896 43.2924 28.5826C43.5854 28.8757 43.75 29.2731 43.75 29.6875C43.75 30.1019 43.5854 30.4993 43.2924 30.7924C42.9993 31.0854 42.6019 31.25 42.1875 31.25H7.8125C7.3981 31.25 7.00067 31.0854 6.70765 30.7924C6.41462 30.4993 6.25 30.1019 6.25 29.6875ZM6.25 20.3125C6.25 19.8981 6.41462 19.5007 6.70765 19.2076C7.00067 18.9146 7.3981 18.75 7.8125 18.75H42.1875C42.6019 18.75 42.9993 18.9146 43.2924 19.2076C43.5854 19.5007 43.75 19.8981 43.75 20.3125C43.75 20.7269 43.5854 21.1243 43.2924 21.4174C42.9993 21.7104 42.6019 21.875 42.1875 21.875H7.8125C7.3981 21.875 7.00067 21.7104 6.70765 21.4174C6.41462 21.1243 6.25 20.7269 6.25 20.3125ZM6.25 10.9375C6.25 10.5231 6.41462 10.1257 6.70765 9.83265C7.00067 9.53962 7.3981 9.375 7.8125 9.375H42.1875C42.6019 9.375 42.9993 9.53962 43.2924 9.83265C43.5854 10.1257 43.75 10.5231 43.75 10.9375C43.75 11.3519 43.5854 11.7493 43.2924 12.0424C42.9993 12.3354 42.6019 12.5 42.1875 12.5H7.8125C7.3981 12.5 7.00067 12.3354 6.70765 12.0424C6.41462 11.7493 6.25 11.3519 6.25 10.9375Z" fill="#373A3C"/>
</svg>
