<svg width="100" height="100" viewBox="0 0 100 100" fill="none" xmlns="http://www.w3.org/2000/svg">
<path fill-rule="evenodd" clip-rule="evenodd" d="M29.0375 47.7875C29.3278 47.4965 29.6726 47.2656 30.0523 47.108C30.4319 46.9505 30.839 46.8694 31.25 46.8694C31.661 46.8694 32.0681 46.9505 32.4477 47.108C32.8274 47.2656 33.1722 47.4965 33.4625 47.7875L50 64.3313L66.5375 47.7875C67.1243 47.2007 67.9202 46.8711 68.75 46.8711C69.5798 46.8711 70.3757 47.2007 70.9625 47.7875C71.5493 48.3743 71.8789 49.1702 71.8789 50C71.8789 50.8298 71.5493 51.6257 70.9625 52.2125L52.2125 70.9625C51.9222 71.2535 51.5774 71.4844 51.1977 71.642C50.8181 71.7995 50.411 71.8806 50 71.8806C49.589 71.8806 49.1819 71.7995 48.8023 71.642C48.4226 71.4844 48.0778 71.2535 47.7875 70.9625L29.0375 52.2125C28.7465 51.9222 28.5156 51.5774 28.358 51.1977C28.2005 50.8181 28.1194 50.411 28.1194 50C28.1194 49.589 28.2005 49.1819 28.358 48.8023C28.5156 48.4226 28.7465 48.0778 29.0375 47.7875V47.7875Z" fill="white"/>
<path fill-rule="evenodd" clip-rule="evenodd" d="M50 28.125C50.8288 28.125 51.6237 28.4542 52.2097 29.0403C52.7958 29.6263 53.125 30.4212 53.125 31.25V62.5C53.125 63.3288 52.7958 64.1237 52.2097 64.7097C51.6237 65.2958 50.8288 65.625 50 65.625C49.1712 65.625 48.3763 65.2958 47.7903 64.7097C47.2042 64.1237 46.875 63.3288 46.875 62.5V31.25C46.875 30.4212 47.2042 29.6263 47.7903 29.0403C48.3763 28.4542 49.1712 28.125 50 28.125V28.125Z" fill="white"/>
</svg>
